<svg width="70" height="70" viewBox="0 0 70 70" fill="none" xmlns="http://www.w3.org/2000/svg">
<circle cx="35" cy="35" r="35" fill="#F5F9F6"/>
<path fill-rule="evenodd" clip-rule="evenodd" d="M35 22.5C30.1625 22.5 26.25 26.4125 26.25 31.25C26.25 37.8125 35 47.5 35 47.5C35 47.5 43.75 37.8125 43.75 31.25C43.75 26.4125 39.8375 22.5 35 22.5ZM28.75 31.25C28.75 27.8 31.55 25 35 25C38.45 25 41.25 27.8 41.25 31.25C41.25 34.85 37.65 40.2375 35 43.6C32.4 40.2625 28.75 34.8125 28.75 31.25ZM31.875 31.25C31.875 29.5241 33.2741 28.125 35 28.125C36.1165 28.125 37.1481 28.7206 37.7063 29.6875C38.2646 30.6544 38.2646 31.8456 37.7063 32.8125C37.1481 33.7794 36.1165 34.375 35 34.375C33.2741 34.375 31.875 32.9759 31.875 31.25Z" fill="#333333"/>
</svg>
