<svg width="96" height="28" viewBox="0 0 96 28" fill="none" xmlns="http://www.w3.org/2000/svg">
<path d="M17.115 3.915H10.575V22.29H6.54V3.915H0V0.599999H17.115V3.915Z" fill="#EEEEEE"/>
<path d="M19.8457 9.57C20.3257 8.65 20.8957 7.93 21.5557 7.41C22.2157 6.88 22.9957 6.615 23.8957 6.615C24.6057 6.615 25.1757 6.77 25.6057 7.08L25.3657 9.855C25.3157 10.035 25.2407 10.165 25.1407 10.245C25.0507 10.315 24.9257 10.35 24.7657 10.35C24.6157 10.35 24.3907 10.325 24.0907 10.275C23.8007 10.225 23.5157 10.2 23.2357 10.2C22.8257 10.2 22.4607 10.26 22.1407 10.38C21.8207 10.5 21.5307 10.675 21.2707 10.905C21.0207 11.125 20.7957 11.395 20.5957 11.715C20.4057 12.035 20.2257 12.4 20.0557 12.81V22.29H16.3507V6.9H18.5257C18.9057 6.9 19.1707 6.97 19.3207 7.11C19.4707 7.24 19.5707 7.48 19.6207 7.83L19.8457 9.57Z" fill="#EEEEEE"/>
<path d="M35.467 15.72C34.397 15.77 33.497 15.865 32.767 16.005C32.037 16.135 31.452 16.305 31.012 16.515C30.572 16.725 30.257 16.97 30.067 17.25C29.877 17.53 29.782 17.835 29.782 18.165C29.782 18.815 29.972 19.28 30.352 19.56C30.742 19.84 31.247 19.98 31.867 19.98C32.627 19.98 33.282 19.845 33.832 19.575C34.392 19.295 34.937 18.875 35.467 18.315V15.72ZM26.977 9.045C28.747 7.425 30.877 6.615 33.367 6.615C34.267 6.615 35.072 6.765 35.782 7.065C36.492 7.355 37.092 7.765 37.582 8.295C38.072 8.815 38.442 9.44 38.692 10.17C38.952 10.9 39.082 11.7 39.082 12.57V22.29H37.402C37.052 22.29 36.782 22.24 36.592 22.14C36.402 22.03 36.252 21.815 36.142 21.495L35.812 20.385C35.422 20.735 35.042 21.045 34.672 21.315C34.302 21.575 33.917 21.795 33.517 21.975C33.117 22.155 32.687 22.29 32.227 22.38C31.777 22.48 31.277 22.53 30.727 22.53C30.077 22.53 29.477 22.445 28.927 22.275C28.377 22.095 27.902 21.83 27.502 21.48C27.102 21.13 26.792 20.695 26.572 20.175C26.352 19.655 26.242 19.05 26.242 18.36C26.242 17.97 26.307 17.585 26.437 17.205C26.567 16.815 26.777 16.445 27.067 16.095C27.367 15.745 27.752 15.415 28.222 15.105C28.692 14.795 29.267 14.525 29.947 14.295C30.637 14.065 31.437 13.88 32.347 13.74C33.257 13.59 34.297 13.5 35.467 13.47V12.57C35.467 11.54 35.247 10.78 34.807 10.29C34.367 9.79 33.732 9.54 32.902 9.54C32.302 9.54 31.802 9.61 31.402 9.75C31.012 9.89 30.667 10.05 30.367 10.23C30.067 10.4 29.792 10.555 29.542 10.695C29.302 10.835 29.032 10.905 28.732 10.905C28.472 10.905 28.252 10.84 28.072 10.71C27.892 10.57 27.747 10.41 27.637 10.23L26.977 9.045Z" fill="#EEEEEE"/>
<path d="M56.0948 6.9L49.9898 22.29H46.6298L40.5248 6.9H43.5848C43.8648 6.9 44.0948 6.965 44.2748 7.095C44.4648 7.225 44.5898 7.39 44.6498 7.59L47.6198 15.81C47.7798 16.29 47.9198 16.76 48.0398 17.22C48.1598 17.68 48.2648 18.14 48.3548 18.6C48.4548 18.14 48.5648 17.68 48.6848 17.22C48.8048 16.76 48.9498 16.29 49.1198 15.81L52.1498 7.59C52.2198 7.39 52.3448 7.225 52.5248 7.095C52.7048 6.965 52.9198 6.9 53.1698 6.9H56.0948Z" fill="#EEEEEE"/>
<path d="M67.5157 12.825C67.5157 12.345 67.4457 11.895 67.3057 11.475C67.1757 11.045 66.9757 10.67 66.7057 10.35C66.4357 10.03 66.0907 9.78 65.6707 9.6C65.2607 9.41 64.7807 9.315 64.2307 9.315C63.1607 9.315 62.3157 9.62 61.6957 10.23C61.0857 10.84 60.6957 11.705 60.5257 12.825H67.5157ZM60.4507 15.06C60.5107 15.85 60.6507 16.535 60.8707 17.115C61.0907 17.685 61.3807 18.16 61.7407 18.54C62.1007 18.91 62.5257 19.19 63.0157 19.38C63.5157 19.56 64.0657 19.65 64.6657 19.65C65.2657 19.65 65.7807 19.58 66.2107 19.44C66.6507 19.3 67.0307 19.145 67.3507 18.975C67.6807 18.805 67.9657 18.65 68.2057 18.51C68.4557 18.37 68.6957 18.3 68.9257 18.3C69.2357 18.3 69.4657 18.415 69.6157 18.645L70.6807 19.995C70.2707 20.475 69.8107 20.88 69.3007 21.21C68.7907 21.53 68.2557 21.79 67.6957 21.99C67.1457 22.18 66.5807 22.315 66.0007 22.395C65.4307 22.475 64.8757 22.515 64.3357 22.515C63.2657 22.515 62.2707 22.34 61.3507 21.99C60.4307 21.63 59.6307 21.105 58.9507 20.415C58.2707 19.715 57.7357 18.855 57.3457 17.835C56.9557 16.805 56.7607 15.615 56.7607 14.265C56.7607 13.215 56.9307 12.23 57.2707 11.31C57.6107 10.38 58.0957 9.575 58.7257 8.895C59.3657 8.205 60.1407 7.66 61.0507 7.26C61.9707 6.86 63.0057 6.66 64.1557 6.66C65.1257 6.66 66.0207 6.815 66.8407 7.125C67.6607 7.435 68.3657 7.89 68.9557 8.49C69.5457 9.08 70.0057 9.81 70.3357 10.68C70.6757 11.54 70.8457 12.525 70.8457 13.635C70.8457 14.195 70.7857 14.575 70.6657 14.775C70.5457 14.965 70.3157 15.06 69.9757 15.06H60.4507Z" fill="#EEEEEE"/>
<path d="M77.3761 0V22.29H73.6711V0H77.3761Z" fill="#EEEEEE"/>
<path d="M95.0475 6.9L86.6625 26.52C86.5525 26.78 86.4075 26.975 86.2275 27.105C86.0575 27.245 85.7925 27.315 85.4325 27.315H82.6725L85.5525 21.135L79.3275 6.9H82.5825C82.8725 6.9 83.0975 6.97 83.2575 7.11C83.4275 7.25 83.5525 7.41 83.6325 7.59L86.9025 15.57C87.0125 15.84 87.1025 16.11 87.1725 16.38C87.2525 16.65 87.3275 16.925 87.3975 17.205C87.4875 16.925 87.5775 16.65 87.6675 16.38C87.7575 16.1 87.8575 15.825 87.9675 15.555L91.0575 7.59C91.1375 7.39 91.2675 7.225 91.4475 7.095C91.6375 6.965 91.8475 6.9 92.0775 6.9H95.0475Z" fill="#EEEEEE"/>
</svg>
